<svg xmlns="http://www.w3.org/2000/svg" xmlns:xlink="http://www.w3.org/1999/xlink" width="388" height="352" viewBox="0 0 388 352">
  <defs>
    <linearGradient id="linear-gradient" x1="0.5" x2="0.5" y2="1" gradientUnits="objectBoundingBox">
      <stop offset="0" stop-color="#5e98d2"/>
      <stop offset="1" stop-color="#4a80b9"/>
    </linearGradient>
  </defs>
  <g id="Group_8436" data-name="Group 8436" transform="translate(-20 -92)">
    <g id="Group_8434" data-name="Group 8434" transform="translate(72.779 130.087)">
      <path id="Path_4016" data-name="Path 4016" d="M385.109,211.019l-48.334,43.419-14.947,13.425a5.864,5.864,0,0,0-1.974,4.778l1.084,22.927L323.9,358.3c.37,4.409-4.556,7.776-8.335,5.688l-17.279-9.6-25.274-14.041-18.587-10.319,18.608,10.257,25.314,13.941,3.632,2c3.778,2.089,8.7-1.279,8.335-5.687l-1.887-22.48v-.008l-4.857-57.769a5.851,5.851,0,0,1,1.968-4.785l41.242-37.046,22.038-19.79c3.479-3.121,2.191-8.57-2.184-9.209l-8.217-1.21-24.507-3.607-46.831-6.9a4.8,4.8,0,0,1-3.811-2.952L273.6,160.988v-.007L269.222,150.2l-6.011-14.8H263.2l-2.384-5.865v-.007l-3.925-9.672-3.277-8.077a4.679,4.679,0,0,0-3.04-2.782l14.456,2.135,2.108.308.468.455,2.3,2.235L277,131.6l1.345,3.306,2.72,6.7,18.495,45.546a4.823,4.823,0,0,0,3.81,2.959l30.557,4.493,24.507,3.606,24.492,3.607C387.3,202.45,388.589,207.9,385.109,211.019Z" transform="translate(-110.453 -108.761)" fill="#efa92a"/>
      <path id="Path_4021" data-name="Path 4021" d="M243.018,323.751l-39.805,20v.008l-18.854,9.471L172.6,359.139c-.08.039-.161.078-.241.108a7.764,7.764,0,0,1-5.361-.023l-.314.154-16.266-2.5.01-.016a5.655,5.655,0,0,0,2.374-.624l9.3-4.67,16.388-8.238,8.544-4.293,4.128-2.073,18.194-9.148,18.83-9.463a5.378,5.378,0,0,1,5.033,0Z" transform="translate(-110.453 -108.761)" fill="#efa92a"/>
      <path id="Path_4024" data-name="Path 4024" d="M368.815,208.669l-22.038,19.79v.008l-41.241,37.038a5.851,5.851,0,0,0-1.968,4.785l4.857,57.769v.008l1.887,22.48c.369,4.408-4.557,7.776-8.335,5.687l-3.632-2-25.314-13.941-18.608-10.257-.375-.208-11.028-6.073-9.8-5.4a5.378,5.378,0,0,0-5.033,0l-18.83,9.463-18.194,9.148-4.128,2.073-8.544,4.293L162.1,351.564l-9.3,4.67a5.655,5.655,0,0,1-2.374.624,4.914,4.914,0,0,1-4.966-6.311l1.246-4.825,19.539-75.432a5.074,5.074,0,0,0-1.13-4.785l-53.343-56.836c-2.925-3.121-.684-8.57,3.8-9.209l81.605-11.714a6.041,6.041,0,0,0,4.327-2.952l42.425-73.02a6.213,6.213,0,0,1,1.167-1.449,5.8,5.8,0,0,1,2.722-1.425,5.4,5.4,0,0,1,1.214-.139h.008a4.654,4.654,0,0,1,1.031.108,3.685,3.685,0,0,1,.505.123,4.679,4.679,0,0,1,3.04,2.782l3.277,8.077,3.924,9.679L263.2,135.4h.008l6.011,14.8,4.382,10.782v.007l9.662,23.806a4.8,4.8,0,0,0,3.811,2.952l46.831,6.9,24.507,3.607,8.217,1.21C371.006,200.1,372.294,205.548,368.815,208.669Z" transform="translate(-110.453 -108.761)" fill="#fab942"/>
    </g>
    <rect id="Rectangle_250" data-name="Rectangle 250" width="388" height="2" rx="1" transform="translate(20 428.593)" fill="url(#linear-gradient)"/>
    <g id="Background_Complete" data-name="Background Complete" transform="translate(284.853 422.127)">
      <rect id="Rectangle_2805" data-name="Rectangle 2805" width="8.693" height="0.25" fill="#ebebeb"/>
    </g>
    <path id="Path_4017" data-name="Path 4017" d="M267.142,111.436h0Z" transform="translate(-37.674 21.326)" fill="#263238"/>
    <path id="Path_4018" data-name="Path 4018" d="M269.912,114.125l-2.77-2.689A4.67,4.67,0,0,1,269.912,114.125Z" transform="translate(-37.674 21.326)" fill="#efa92a"/>
    <path id="Path_4019" data-name="Path 4019" d="M265.034,111.127a5.277,5.277,0,0,1,2.105.308Z" transform="translate(-37.674 21.326)" fill="#efa92a"/>
    <g id="Group_8435" data-name="Group 8435" transform="translate(310.692 264.051)">
      <path id="Path_4029" data-name="Path 4029" d="M377.8,305.531a1.123,1.123,0,0,1-.626-2.045c1.924-1.318,4.181-3.4,4.014-5.806h0c-.174-2.521-5.391-3.777-8.509-4.528-.5-.12-.962-.231-1.359-.336a19.942,19.942,0,0,1-1.946-.569c-12.493-4.013-20.551-12.2-20.992-21.353-.688-14.282,16.922-26.777,39.255-27.853s41.072,9.673,41.761,23.947-16.932,26.767-39.277,27.843c-.531.026-.657.7-.683.9-.664,5.258-3.887,6.816-6.241,7.952l-.316.154a34.244,34.244,0,0,1-4.755,1.644A1.158,1.158,0,0,1,377.8,305.531Zm12.913-61.564q-1.5,0-3.028.072c-21.783,1.051-38.966,13.075-38.3,26.806.42,8.726,8.213,16.568,20.336,20.464.35.141,1.019.318,1.794.523.455.12.908.229,1.4.349,3.6.867,9.048,2.177,9.274,5.43h0c.159,2.314-1.337,4.568-4.447,6.7a.1.1,0,0,0-.038.147.106.106,0,0,0,.144.067,33.829,33.829,0,0,0,4.6-1.584l.317-.154c2.386-1.152,5.088-2.458,5.685-7.177a1.819,1.819,0,0,1,1.628-1.776c21.794-1.051,38.987-13.071,38.325-26.8C427.771,253.954,411.142,243.967,390.716,243.967Z" transform="translate(-348.366 -242.967)" fill="#ffca6a"/>
      <path id="Path_4030" data-name="Path 4030" d="M379.006,264.163h-2.93a2.674,2.674,0,0,0-2.638,2.507l-.709,13.519a2.357,2.357,0,0,0,2.376,2.506h2.93a2.672,2.672,0,0,0,2.636-2.506l.709-13.519A2.356,2.356,0,0,0,379.006,264.163Z" transform="translate(-348.366 -242.967)" fill="#f7c64c"/>
      <path id="Path_4032" data-name="Path 4032" d="M402.148,264.163h-8.572l.741-3.485a26.132,26.132,0,0,0,.713-5.569,3.407,3.407,0,0,0-1.455-2.424,6.366,6.366,0,0,0-3.9-.674l-.787.736c-.079,1.508-.592,5.472-1.529,6.654l-4.083,5.15a4.238,4.238,0,0,0-.924,2.41l-.663,12.646a2.911,2.911,0,0,0,2.932,3.088H396.62a3.792,3.792,0,0,0,2.8-1.268l1.132-1.259a3.78,3.78,0,0,0,.877-1.7l2.627-11.708Z" transform="translate(-348.366 -242.967)" fill="#98ca46"/>
    </g>
    <path id="Path_4033" data-name="Path 4033" d="M194.426,98.664v39.068a3.693,3.693,0,0,1-3.691,3.691H132.768l-11.506,11.163a1.546,1.546,0,0,1-1.21.442c-1.513,0-1.7-1.224-1.7-2.738l.407-8.867h-6.9a3.693,3.693,0,0,1-3.691-3.691V98.654a3.68,3.68,0,0,1,3.691-3.662h78.889A3.673,3.673,0,0,1,194.426,98.664Z" transform="translate(-37.674 21.326)" fill="#fff"/>
    <path id="Path_4034" data-name="Path 4034" d="M120.052,153.528c-2.2,0-2.2-2.187-2.2-3.237l.385-8.368h-6.372a4.2,4.2,0,0,1-4.191-4.191V98.654a4.158,4.158,0,0,1,1.236-2.95,4.1,4.1,0,0,1,2.957-1.212h78.887a4.177,4.177,0,0,1,4.172,4.172v39.068a4.2,4.2,0,0,1-4.191,4.191H132.97l-11.36,11.022A2.058,2.058,0,0,1,120.052,153.528Zm-8.2-58.036a3.18,3.18,0,0,0-3.175,3.164v39.076a3.2,3.2,0,0,0,3.191,3.191h7.419l-.432,9.391c0,1.879.387,2.214,1.2,2.214a1.084,1.084,0,0,0,.907-.339l11.606-11.266h58.17a3.2,3.2,0,0,0,3.191-3.191V98.664a3.176,3.176,0,0,0-3.172-3.172h-78.9Z" transform="translate(-37.674 21.326)" fill="#fab942"/>
    <path id="Path_4035" data-name="Path 4035" d="M129.146,104.879l-2.094,1.88-.647.581a.253.253,0,0,0-.085.207l.047.993.128,2.716a.254.254,0,0,1-.361.247l-.748-.416-1.1-.608-.805-.447.806.444,1.1.6.158.087a.254.254,0,0,0,.361-.246l-.082-.974h0l-.21-2.5a.25.25,0,0,1,.085-.207l1.786-1.6.954-.857a.224.224,0,0,0-.1-.4l-.356-.052-1.061-.156-2.028-.3a.209.209,0,0,1-.165-.128l-.418-1.031h0l-.19-.467-.26-.641h0l-.1-.254h0l-.17-.419-.142-.35a.2.2,0,0,0-.132-.12l.626.092.091.014.02.019.1.1.307.757.058.143.118.29.8,1.972a.209.209,0,0,0,.165.128l1.323.195,1.061.156,1.061.156A.224.224,0,0,1,129.146,104.879Z" transform="translate(-37.674 21.326)" fill="#efa92a"/>
    <path id="Path_4037" data-name="Path 4037" d="M124.037,100.567h0Z" transform="translate(-37.674 21.326)" fill="#232930"/>
    <path id="Path_4038" data-name="Path 4038" d="M124.157,100.683l-.12-.116A.2.2,0,0,1,124.157,100.683Z" transform="translate(-37.674 21.326)" fill="#232930"/>
    <path id="Path_4039" data-name="Path 4039" d="M123.946,100.553a.217.217,0,0,1,.091.014Z" transform="translate(-37.674 21.326)" fill="#232930"/>
    <path id="Path_4040" data-name="Path 4040" d="M122.993,109.76l-1.724.866h0l-.817.41-.509.256-.01,0a.336.336,0,0,1-.232,0l-.014.007-.7-.108h0a.251.251,0,0,0,.1-.027l.4-.2.709-.357.37-.186.179-.09.788-.4.815-.41a.233.233,0,0,1,.218,0Z" transform="translate(-37.674 21.326)" fill="#efa92a"/>
    <path id="Path_4042" data-name="Path 4042" d="M123.867,101.6l-.318-.6-.3-.556h0l.067.01a.2.2,0,0,1,.132.12l.142.35Z" transform="translate(-37.674 21.326)" fill="#232930"/>
    <path id="Path_4043" data-name="Path 4043" d="M120.568,110.422l-1.079.543-.4.2a.251.251,0,0,1-.1.027l.719-1.331.062.04Z" transform="translate(-37.674 21.326)" fill="#232930"/>
    <path id="Path_4044" data-name="Path 4044" d="M128.44,104.777l-.954.857h0l-1.786,1.6a.25.25,0,0,0-.085.207l.21,2.5h0l.082.974a.254.254,0,0,1-.361.246l-.158-.087-1.1-.6-.806-.444-.016-.009-.477-.263-.425-.234a.233.233,0,0,0-.218,0l-.815.41-.788.4-.179.09-.37.186-.709.357-.4.2a.251.251,0,0,1-.1.027.212.212,0,0,1-.215-.273l.054-.209.846-3.267a.217.217,0,0,0-.049-.207l-2.31-2.461a.248.248,0,0,1,.165-.4l3.534-.507a.262.262,0,0,0,.187-.128l1.837-3.162a.286.286,0,0,1,.051-.062.238.238,0,0,1,.118-.062.231.231,0,0,1,.052-.006h0a.168.168,0,0,1,.045.005l.022,0a.2.2,0,0,1,.132.12l.142.35.17.419.1.254h0l.26.641.19.467h0l.418,1.031a.209.209,0,0,0,.165.128l2.028.3,1.061.156.356.052A.224.224,0,0,1,128.44,104.777Z" transform="translate(-37.674 21.326)" fill="#fab942"/>
    <path id="Path_4048" data-name="Path 4048" d="M143.174,104.879l-2.093,1.88-.647.581a.253.253,0,0,0-.085.207l.047.993.128,2.716a.254.254,0,0,1-.361.247l-.748-.416-1.095-.608-.805-.447.806.444,1.1.6.158.087a.253.253,0,0,0,.36-.246l-.081-.974h0l-.21-2.5a.25.25,0,0,1,.085-.207l1.786-1.6.954-.857a.224.224,0,0,0-.1-.4l-.355-.052-1.062-.156-2.028-.3a.209.209,0,0,1-.165-.128l-.418-1.031h0l-.19-.467-.26-.641h0l-.1-.254h0l-.17-.419-.141-.35a.2.2,0,0,0-.132-.12l.626.092.091.014.02.019.1.1.307.757.058.143.118.29.8,1.972a.207.207,0,0,0,.165.128l1.323.195,1.061.156,1.061.156A.224.224,0,0,1,143.174,104.879Z" transform="translate(-37.674 21.326)" fill="#efa92a"/>
    <path id="Path_4050" data-name="Path 4050" d="M138.066,100.567h0Z" transform="translate(-37.674 21.326)" fill="#232930"/>
    <path id="Path_4051" data-name="Path 4051" d="M138.186,100.683l-.12-.116A.2.2,0,0,1,138.186,100.683Z" transform="translate(-37.674 21.326)" fill="#232930"/>
    <path id="Path_4052" data-name="Path 4052" d="M137.975,100.553a.217.217,0,0,1,.091.014Z" transform="translate(-37.674 21.326)" fill="#232930"/>
    <path id="Path_4053" data-name="Path 4053" d="M137.022,109.76l-1.724.866h0l-.817.41-.509.256-.01,0a.336.336,0,0,1-.232,0l-.014.007-.7-.108h0a.251.251,0,0,0,.1-.027l.4-.2.709-.357.37-.186.179-.09.788-.4.815-.41a.233.233,0,0,1,.218,0Z" transform="translate(-37.674 21.326)" fill="#efa92a"/>
    <path id="Path_4055" data-name="Path 4055" d="M137.9,101.6l-.318-.6-.3-.556h0l.067.01a.2.2,0,0,1,.132.12l.141.35Z" transform="translate(-37.674 21.326)" fill="#232930"/>
    <path id="Path_4056" data-name="Path 4056" d="M134.6,110.422l-1.079.543-.4.2a.251.251,0,0,1-.1.027l.719-1.331.061.04Z" transform="translate(-37.674 21.326)" fill="#232930"/>
    <path id="Path_4057" data-name="Path 4057" d="M142.469,104.777l-.954.857h0l-1.786,1.6a.25.25,0,0,0-.085.207l.21,2.5h0l.081.974a.253.253,0,0,1-.36.246l-.158-.087-1.1-.6-.806-.444-.016-.009-.477-.263-.425-.234a.233.233,0,0,0-.218,0l-.815.41-.788.4-.179.09-.37.186-.709.357-.4.2a.251.251,0,0,1-.1.027.212.212,0,0,1-.215-.273l.054-.209.846-3.267a.217.217,0,0,0-.049-.207l-2.31-2.461a.248.248,0,0,1,.165-.4l3.534-.507a.262.262,0,0,0,.187-.128l1.837-3.162a.26.26,0,0,1,.051-.062.239.239,0,0,1,.117-.062.246.246,0,0,1,.053-.006h0a.173.173,0,0,1,.045.005l.022,0a.2.2,0,0,1,.132.12l.141.35.17.419.1.254h0l.26.641.19.467h0l.418,1.031a.209.209,0,0,0,.165.128l2.028.3,1.062.156.355.052A.224.224,0,0,1,142.469,104.777Z" transform="translate(-37.674 21.326)" fill="#fab942"/>
    <path id="Path_4061" data-name="Path 4061" d="M157.2,104.879l-2.093,1.88-.647.581a.253.253,0,0,0-.085.207l.047.993.128,2.716a.254.254,0,0,1-.361.247l-.748-.416-1.1-.608-.8-.447.806.444,1.1.6.158.087a.253.253,0,0,0,.36-.246l-.081-.974h0l-.211-2.5a.254.254,0,0,1,.086-.207l1.785-1.6.955-.857a.224.224,0,0,0-.1-.4l-.356-.052-1.061-.156-2.028-.3a.209.209,0,0,1-.165-.128l-.418-1.031h0l-.19-.467-.26-.641h0l-.1-.254h0l-.17-.419-.141-.35a.2.2,0,0,0-.132-.12l.626.092.091.014.02.019.1.1.307.757.058.143.118.29.8,1.972a.207.207,0,0,0,.165.128l1.323.195,1.061.156,1.061.156A.224.224,0,0,1,157.2,104.879Z" transform="translate(-37.674 21.326)" fill="#efa92a"/>
    <path id="Path_4063" data-name="Path 4063" d="M152.1,100.567h0Z" transform="translate(-37.674 21.326)" fill="#232930"/>
    <path id="Path_4064" data-name="Path 4064" d="M152.215,100.683l-.12-.116A.2.2,0,0,1,152.215,100.683Z" transform="translate(-37.674 21.326)" fill="#232930"/>
    <path id="Path_4065" data-name="Path 4065" d="M152,100.553a.217.217,0,0,1,.091.014Z" transform="translate(-37.674 21.326)" fill="#232930"/>
    <path id="Path_4066" data-name="Path 4066" d="M151.05,109.76l-1.723.866h0l-.817.41-.509.256-.01,0a.339.339,0,0,1-.233,0l-.013.007-.7-.108h0a.251.251,0,0,0,.1-.027l.4-.2.709-.357.37-.186.179-.09.788-.4.815-.41a.233.233,0,0,1,.218,0Z" transform="translate(-37.674 21.326)" fill="#efa92a"/>
    <path id="Path_4068" data-name="Path 4068" d="M151.925,101.6l-.318-.6-.3-.556h0l.067.01a.2.2,0,0,1,.132.12l.141.35Z" transform="translate(-37.674 21.326)" fill="#232930"/>
    <path id="Path_4069" data-name="Path 4069" d="M148.626,110.422l-1.079.543-.4.2a.251.251,0,0,1-.1.027l.719-1.331.061.04Z" transform="translate(-37.674 21.326)" fill="#232930"/>
    <path id="Path_4070" data-name="Path 4070" d="M156.5,104.777l-.955.857h0l-1.785,1.6a.254.254,0,0,0-.086.207l.211,2.5h0l.081.974a.253.253,0,0,1-.36.246l-.158-.087-1.1-.6-.806-.444-.016-.009-.478-.263-.424-.234a.233.233,0,0,0-.218,0l-.815.41-.788.4-.179.09-.37.186-.709.357-.4.2a.251.251,0,0,1-.1.027.212.212,0,0,1-.215-.273l.054-.209.846-3.267a.22.22,0,0,0-.049-.207l-2.31-2.461a.248.248,0,0,1,.165-.4l3.534-.507a.262.262,0,0,0,.187-.128l1.837-3.162a.271.271,0,0,1,.168-.124.246.246,0,0,1,.053-.006h0a.173.173,0,0,1,.045.005l.022,0a.2.2,0,0,1,.132.12l.141.35.17.419.1.254h0l.26.641.19.467h0l.418,1.031a.209.209,0,0,0,.165.128l2.028.3,1.061.156.356.052A.224.224,0,0,1,156.5,104.777Z" transform="translate(-37.674 21.326)" fill="#fab942"/>
    <path id="Path_4074" data-name="Path 4074" d="M171.232,104.879l-2.093,1.88-.647.581a.253.253,0,0,0-.085.207l.046.993.129,2.716a.254.254,0,0,1-.361.247l-.749-.416-1.094-.608-.805-.447.806.444,1.1.6.157.087a.254.254,0,0,0,.361-.246l-.081-.974h0l-.211-2.5a.254.254,0,0,1,.086-.207l1.785-1.6.955-.857a.224.224,0,0,0-.095-.4l-.356-.052-1.061-.156-2.028-.3a.209.209,0,0,1-.165-.128l-.418-1.031h0l-.19-.467-.26-.641h0l-.1-.254h0l-.17-.419-.142-.35a.2.2,0,0,0-.131-.12l.626.092.091.014.02.019.1.1.307.757.058.143.118.29.8,1.972a.207.207,0,0,0,.165.128l1.323.195,1.061.156,1.061.156A.224.224,0,0,1,171.232,104.879Z" transform="translate(-37.674 21.326)" fill="#efa92a"/>
    <path id="Path_4076" data-name="Path 4076" d="M166.124,100.567h0Z" transform="translate(-37.674 21.326)" fill="#232930"/>
    <path id="Path_4077" data-name="Path 4077" d="M166.244,100.683l-.12-.116A.2.2,0,0,1,166.244,100.683Z" transform="translate(-37.674 21.326)" fill="#232930"/>
    <path id="Path_4078" data-name="Path 4078" d="M166.033,100.553a.217.217,0,0,1,.091.014Z" transform="translate(-37.674 21.326)" fill="#232930"/>
    <path id="Path_4079" data-name="Path 4079" d="M165.079,109.76l-1.723.866h0l-.817.41-.509.256-.01,0a.336.336,0,0,1-.232,0l-.014.007-.7-.108h0a.255.255,0,0,0,.1-.027l.4-.2.709-.357.37-.186.179-.09.788-.4.815-.41a.233.233,0,0,1,.218,0Z" transform="translate(-37.674 21.326)" fill="#efa92a"/>
    <path id="Path_4081" data-name="Path 4081" d="M165.953,101.6l-.317-.6-.3-.556h0l.067.01a.2.2,0,0,1,.131.12l.142.35Z" transform="translate(-37.674 21.326)" fill="#232930"/>
    <path id="Path_4082" data-name="Path 4082" d="M162.655,110.422l-1.079.543-.4.2a.255.255,0,0,1-.1.027l.719-1.331.061.04Z" transform="translate(-37.674 21.326)" fill="#232930"/>
    <path id="Path_4083" data-name="Path 4083" d="M170.527,104.777l-.955.857h0l-1.785,1.6a.254.254,0,0,0-.086.207l.211,2.5h0l.081.974a.254.254,0,0,1-.361.246l-.157-.087-1.1-.6-.806-.444-.016-.009-.478-.263-.424-.234a.233.233,0,0,0-.218,0l-.815.41-.788.4-.179.09-.37.186-.709.357-.4.2a.255.255,0,0,1-.1.027.212.212,0,0,1-.215-.273l.054-.209.846-3.267a.22.22,0,0,0-.049-.207l-2.31-2.461a.248.248,0,0,1,.165-.4l3.534-.507a.262.262,0,0,0,.187-.128l1.837-3.162a.256.256,0,0,1,.05-.062.254.254,0,0,1,.171-.068h0a.173.173,0,0,1,.045.005l.022,0a.2.2,0,0,1,.131.12l.142.35.17.419.1.254h0l.26.641.19.467h0l.418,1.031a.209.209,0,0,0,.165.128l2.028.3,1.061.156.356.052A.224.224,0,0,1,170.527,104.777Z" transform="translate(-37.674 21.326)" fill="#fab942"/>
    <path id="Path_4087" data-name="Path 4087" d="M185.261,104.879l-2.093,1.88-.647.581a.257.257,0,0,0-.086.207l.048.993.128,2.716a.254.254,0,0,1-.361.247l-.749-.416-1.094-.608-.8-.447.806.444,1.1.6.157.087a.254.254,0,0,0,.361-.246l-.081-.974h0l-.211-2.5a.254.254,0,0,1,.086-.207l1.785-1.6.955-.857a.224.224,0,0,0-.1-.4l-.356-.052-1.061-.156-2.028-.3a.209.209,0,0,1-.165-.128l-.418-1.031h0l-.19-.467-.26-.641h0l-.1-.254h0l-.17-.419-.142-.35a.2.2,0,0,0-.131-.12l.626.092.091.014.02.019.1.1.307.757.058.143.118.29.8,1.972a.207.207,0,0,0,.165.128l1.323.195,1.061.156,1.061.156A.224.224,0,0,1,185.261,104.879Z" transform="translate(-37.674 21.326)" fill="#efa92a"/>
    <path id="Path_4089" data-name="Path 4089" d="M180.153,100.567h0Z" transform="translate(-37.674 21.326)" fill="#232930"/>
    <path id="Path_4090" data-name="Path 4090" d="M180.273,100.683l-.12-.116A.2.2,0,0,1,180.273,100.683Z" transform="translate(-37.674 21.326)" fill="#232930"/>
    <path id="Path_4091" data-name="Path 4091" d="M180.062,100.553a.217.217,0,0,1,.091.014Z" transform="translate(-37.674 21.326)" fill="#232930"/>
    <path id="Path_4092" data-name="Path 4092" d="M179.108,109.76l-1.723.866h0l-.817.41-.509.256-.01,0a.339.339,0,0,1-.233,0l-.013.007-.7-.108h0a.255.255,0,0,0,.1-.027l.4-.2.71-.357.37-.186.179-.09.788-.4.815-.41a.233.233,0,0,1,.218,0Z" transform="translate(-37.674 21.326)" fill="#efa92a"/>
    <path id="Path_4094" data-name="Path 4094" d="M179.982,101.6l-.317-.6-.3-.556h0l.067.01a.2.2,0,0,1,.131.12l.142.35Z" transform="translate(-37.674 21.326)" fill="#232930"/>
    <path id="Path_4095" data-name="Path 4095" d="M176.684,110.422l-1.08.543-.4.2a.255.255,0,0,1-.1.027l.719-1.331.061.04Z" transform="translate(-37.674 21.326)" fill="#232930"/>
    <path id="Path_4096" data-name="Path 4096" d="M184.556,104.777l-.955.857h0l-1.785,1.6a.254.254,0,0,0-.086.207l.211,2.5h0l.081.974a.254.254,0,0,1-.361.246l-.157-.087-1.1-.6-.806-.444-.016-.009-.478-.263-.424-.234a.233.233,0,0,0-.218,0l-.815.41-.788.4-.179.09-.37.186-.71.357-.4.2a.255.255,0,0,1-.1.027.212.212,0,0,1-.215-.273l.054-.209.846-3.267a.22.22,0,0,0-.049-.207l-2.31-2.461a.247.247,0,0,1,.165-.4l3.533-.507a.262.262,0,0,0,.188-.128l1.837-3.162a.257.257,0,0,1,.05-.062.254.254,0,0,1,.171-.068h0a.173.173,0,0,1,.045.005l.022,0a.2.2,0,0,1,.131.12l.142.35.17.419.1.254h0l.26.641.19.467h0l.418,1.031a.209.209,0,0,0,.165.128l2.028.3,1.061.156.356.052A.224.224,0,0,1,184.556,104.777Z" transform="translate(-37.674 21.326)" fill="#fab942"/>
    <rect id="Rectangle_2806" data-name="Rectangle 2806" width="60.286" height="1" transform="translate(90.04 141.672)" fill="#fe584b"/>
    <rect id="Rectangle_2807" data-name="Rectangle 2807" width="72.065" height="1" transform="translate(78.261 147.297)" fill="#fe584b"/>
    <rect id="Rectangle_2808" data-name="Rectangle 2808" width="49.444" height="1" transform="translate(78.261 152.921)" fill="#fe584b"/>
    <path id="Path_4148" data-name="Path 4148" d="M138.492,403.815l6.536,1.416,4.54-11.633-7.632-3.392Z" transform="translate(-37.674 20.919)" fill="#ffb573"/>
    <path id="Path_4150" data-name="Path 4150" d="M136.33,403.13c-.03-.03-.27-.27-.63-.58-.26-.22-.57-.48-.91-.73a4.458,4.458,0,0,0-2.23-1.03,1.011,1.011,0,0,0-.69.27.718.718,0,0,0-.23.8c.21.49,1.15.93,2.11,1.19l.649.15a15.283,15.283,0,0,0,1.781.26h.01a.179.179,0,0,0,.17-.12A.184.184,0,0,0,136.33,403.13Zm-1.46-.21c-1.31-.25-2.69-.7-2.881-1.2-.03-.07-.049-.2.151-.39a.541.541,0,0,1,.42-.16,1.5,1.5,0,0,1,.37.05,8.328,8.328,0,0,1,2.33,1.49c.13.1.26.22.389.34C135.4,403.02,135.14,402.97,134.87,402.92Z" transform="translate(-37.674 20.919)" fill="#1877f2"/>
    <path id="Path_4151" data-name="Path 4151" d="M135.989,400.02a1.4,1.4,0,0,0-.929-.58c-.52-.09-.74.13-.821.33-.209.44.1,1.27.551,2.05a8.86,8.86,0,0,0,.58.85,5.287,5.287,0,0,0,.7.75.113.113,0,0,0,.079.03c.011,0,.02.01.031.01h.01a.141.141,0,0,0,.09.01.186.186,0,0,0,.119-.14,6.976,6.976,0,0,0,.08-.87A4.077,4.077,0,0,0,135.989,400.02Zm.071,2.83c-.09-.1-.19-.2-.28-.32-.72-.86-1.381-2.19-1.21-2.64.02-.04.079-.17.419-.11l.1.04a1.035,1.035,0,0,1,.57.39,4.364,4.364,0,0,1,.44,2.27C136.09,402.6,136.08,402.72,136.06,402.85Z" transform="translate(-37.674 20.919)" fill="#1877f2"/>
    <path id="Path_4152" data-name="Path 4152" d="M137.251,402.583l8.431,2.238a.7.7,0,0,1,.522.706l-.3,7.264a1.167,1.167,0,0,1-1.206,1.128,1.188,1.188,0,0,1-.245-.034c-3.025-.86-5.684-1.744-9.469-2.743-4.466-1.183-3.475-.349-8.745-1.667-3.174-.8-2.8-4.547-1.411-4.368,6.344.856,7.474-.828,10.425-2.4A2.813,2.813,0,0,1,137.251,402.583Z" transform="translate(-37.674 20.919)" fill="#232930"/>
    <path id="Path_4153" data-name="Path 4153" d="M185.9,411.749h6.688l1.974-12.331-8.177-1.7Z" transform="translate(-37.674 20.919)" fill="#ffb573"/>
    <path id="Path_4155" data-name="Path 4155" d="M183.68,411.16c-.04-.02-.33-.19-.761-.4-.289-.14-.649-.3-1.039-.45a4.409,4.409,0,0,0-2.461-.42.936.936,0,0,0-.589.44.719.719,0,0,0-.01.83,3.405,3.405,0,0,0,2.349.59c.221,0,.441-.01.661-.02a14.877,14.877,0,0,0,1.76-.22h.03a.221.221,0,0,0,.15-.16A.21.21,0,0,0,183.68,411.16Zm-1.471.18c-1.329.1-2.769.02-3.079-.41-.06-.06-.11-.17.03-.41a.538.538,0,0,1,.37-.27,1.481,1.481,0,0,1,.36-.05,8.463,8.463,0,0,1,2.64.83,2.918,2.918,0,0,1,.47.23C182.75,411.29,182.479,411.32,182.209,411.34Z" transform="translate(-37.674 20.919)" fill="#1877f2"/>
    <path id="Path_4156" data-name="Path 4156" d="M183.8,411.33a7.328,7.328,0,0,0-.14-.86,4.245,4.245,0,0,0-1.12-2.23,1.374,1.374,0,0,0-1.051-.31c-.53.05-.689.31-.709.53-.09.49.44,1.22,1.1,1.85a6.224,6.224,0,0,0,.75.64,4.372,4.372,0,0,0,.88.55.106.106,0,0,0,.08.01h.03l0,0a.155.155,0,0,0,.1-.008A.188.188,0,0,0,183.8,411.33Zm-2.67-2.84c.01-.05.039-.18.38-.22l.1.01a.994.994,0,0,1,.66.24,4.42,4.42,0,0,1,1.01,2.07,2.583,2.583,0,0,1,.06.37c-.111-.07-.23-.15-.351-.23C182.07,410.08,181.09,408.97,181.13,408.49Z" transform="translate(-37.674 20.919)" fill="#1877f2"/>
    <path id="Path_4157" data-name="Path 4157" d="M184.425,410.388l8.723-.05a.7.7,0,0,1,.689.545l1.617,7.088a1.168,1.168,0,0,1-.868,1.4,1.135,1.135,0,0,1-.246.031c-3.145-.037-5.942-.193-9.857-.166-4.62.028-3.444.574-8.875.682-3.273.062-3.893-3.655-2.506-3.846,6.346-.835,6.995-2.756,9.432-5.044A2.806,2.806,0,0,1,184.425,410.388Z" transform="translate(-37.674 20.919)" fill="#232930"/>
    <path id="Path_4158" data-name="Path 4158" d="M119.87,172.076l2.159,2.7,5.365-.431,1.845,1.893,25.025,6.924C160.247,178.254,173,172.441,173,172.441c6.721,2.835,6.043,7.859,6.043,7.859s-16.516,10.01-23.325,11.294c-5.817,1.1-28.826-11.895-28.826-11.895l-5.208-.169a2.7,2.7,0,0,1-1.84-.812l-1.455-1.492a2.694,2.694,0,0,1-.753-2.119l.217-2.423A1.137,1.137,0,0,1,119.87,172.076Z" transform="translate(-37.674 21.203)" fill="#ffb573"/>
    <path id="Path_4159" data-name="Path 4159" d="M168.615,172.347l-10.254,6.574,7.079,10.355,15.049-10.146s.005-.154-.009-.424A7.915,7.915,0,0,0,168.615,172.347Z" transform="translate(-37.674 21.204)" fill="#f66639"/>
    <path id="Path_4160" data-name="Path 4160" d="M226.5,180.157a7.262,7.262,0,0,0,4.45-6.091c.09-2.649-2.07-5.329-4.72-5.349s-4.92,3.14-3.69,5.48a2.982,2.982,0,0,0,2.41,1.48v.01c-2.62.34-3.36-1.01-4.09-3.121a9.238,9.238,0,0,1,.61-6.519,66.825,66.825,0,0,1,3.28-5.83c3.62-6.46,4.75-14.64,1.53-21.3s-11.35-11.031-18.37-8.67a15.6,15.6,0,0,0-2.87,1.31c-1.66.93-3.26,2.23-3.54,3.63a.236.236,0,0,0-.02.079,1.557,1.557,0,0,0-.02.481c.05,2.34,3.17,4.71,4.75,5.81,1.88,1.3,3.94,2.6,5.21,4.43a6.566,6.566,0,0,1,.8,1.529c1.16,3.181-.44,6.671-2.27,9.521s-4,5.76-4.09,9.14c-.1,4.54-.338,15.124,15.76,16,3.372.183,7.25-.78,8.45-3.92A3.3,3.3,0,0,1,226.5,180.157Zm-2.55-5.74a.694.694,0,0,1,.79.36A5.735,5.735,0,0,1,223.951,174.417Z" transform="translate(-37.674 21.246)" fill="#263238"/>
    <path id="Path_4161" data-name="Path 4161" d="M203.732,227.988l8.686-50.039a3.292,3.292,0,0,0-2.995-3.833s-14.119-2.267-18.867-2.646c-3.6-.288-12.155-.38-17.216-.409l-.427,3.568c-3.156,7.847-3.458,19.7-2.273,28.227l.2,1.418-1.8,24.968v6.827H202.8Z" transform="translate(-37.674 21.184)" fill="#f66639"/>
    <path id="Path_4162" data-name="Path 4162" d="M183.571,171.7c5.1-.866,6.057-5.094,5.664-8.961l10.831-6.836c-1.517,4.333-3.506,11.938-1.87,16.335,0,0,.054,4.2-9.284,4.2S183.571,171.7,183.571,171.7Z" transform="translate(-37.674 21.222)" fill="#ffb573"/>
    <path id="Path_4163" data-name="Path 4163" d="M189.235,162.734l7.188-4.537a3.747,3.747,0,0,1-.292,3.241c-1.276,2.407-4.464,3.94-6.884,4.041A13.541,13.541,0,0,0,189.235,162.734Z" transform="translate(-37.674 21.223)" opacity="0.2" style="isolation: isolate"/>
    <path id="Path_4164" data-name="Path 4164" d="M204.323,146.938c-2.079,7.424-2.927,11.868-7.558,14.9-6.96,4.577-15.5-.893-15.67-8.763-.151-7.139,3.284-18.043,11.288-19.444a10.5,10.5,0,0,1,11.94,13.305Z" transform="translate(-37.674 21.247)" fill="#ffb573"/>
    <path id="Path_4165" data-name="Path 4165" d="M192.089,146.572c-.134.616-.562,1.044-.964.955s-.615-.652-.482-1.268.563-1.035.964-.945S192.223,145.965,192.089,146.572Z" transform="translate(-37.674 21.239)" fill="#263238"/>
    <path id="Path_4166" data-name="Path 4166" d="M185.173,145.082c-.133.606-.562,1.035-.963.945s-.616-.651-.482-1.258.562-1.044.964-.955S185.307,144.466,185.173,145.082Z" transform="translate(-37.674 21.241)" fill="#263238"/>
    <path id="Path_4168" data-name="Path 4168" d="M195.087,144.216a.458.458,0,0,0,.188,0,.385.385,0,0,0,.178-.491,3.7,3.7,0,0,0-2.6-2.115.37.37,0,0,0-.108.732h0a2.919,2.919,0,0,1,2.044,1.7A.366.366,0,0,0,195.087,144.216Z" transform="translate(-37.674 21.244)" fill="#263238"/>
    <path id="Path_4169" data-name="Path 4169" d="M183.085,141.708a.355.355,0,0,0,.322-.142,2.925,2.925,0,0,1,2.355-1.187.367.367,0,0,0,.063-.732,3.665,3.665,0,0,0-3.025,1.473.355.355,0,0,0,.054.5l.008.007A.345.345,0,0,0,183.085,141.708Z" transform="translate(-37.674 21.246)" fill="#263238"/>
    <path id="Path_4170" data-name="Path 4170" d="M184.774,143.882l-1.463-.75S183.873,144.5,184.774,143.882Z" transform="translate(-37.674 21.242)" fill="#263238"/>
    <path id="Path_4171" data-name="Path 4171" d="M191.822,145.447l-1.463-.75S190.921,146.063,191.822,145.447Z" transform="translate(-37.674 21.24)" fill="#263238"/>
    <path id="Path_4172" data-name="Path 4172" d="M211.64,140.47c0,.66-.4.94-.991.97-1.639.11-4.73-1.58-4.73-1.58a12.044,12.044,0,0,1-.339,9.41c-.851,1.96-2.01,3.39-2.97,3.72a1.025,1.025,0,0,1-.711.01c-1.049-.42-2.079.17-2.98.63s-.109-3.31-.109-3.31a20.2,20.2,0,0,1-4.53-7.06,8.93,8.93,0,0,1-.321-1.21c-.419-2.24.291-3.23-1.04-3.72-2.4-.9-2.559,6.37-4.409,3.49s2.07-5.72,2.07-5.72c-1.99-.91-4.25,1.47-6.07,3.55-.08.11-.18.22-.26.32-.53.61-1.011,1.18-1.43,1.61-1.06,1.08-2.1,1.266-1.73-.79,3.351-18.5,23.66-7.33,23.66-7.33s4.729-5.69,6.44-2.38-5.2,5.91-5.2,5.91S211.64,137.95,211.64,140.47Z" transform="translate(-37.674 21.253)" fill="#263238"/>
    <path id="Path_4173" data-name="Path 4173" d="M206.483,154.746a7.369,7.369,0,0,1-5.14,2.195c-2.57,0-3.177-2.454-1.892-4.524,1.151-1.857,3.882-4.105,6.184-3.124S208.133,153.023,206.483,154.746Z" transform="translate(-37.674 21.234)" fill="#ffb573"/>
    <path id="Path_4174" data-name="Path 4174" d="M187.679,154.6a6.14,6.14,0,0,1-1.124-.1.2.2,0,0,1-.162-.225v-.007a.2.2,0,0,1,.223-.161,5.354,5.354,0,0,0,4.632-1.293.2.2,0,1,1,.294.267A5.547,5.547,0,0,1,187.679,154.6Z" transform="translate(-37.674 21.231)" fill="#263238"/>
    <path id="Path_4175" data-name="Path 4175" d="M202.358,192.02a20.758,20.758,0,0,1,1.569,7.73l-2.476-3.53S201.767,194.521,202.358,192.02Z" transform="translate(-37.674 21.183)" opacity="0.2" style="isolation: isolate"/>
    <path id="Path_4176" data-name="Path 4176" d="M169.038,227.988,139.779,391.14l10.516,3.6c7.956-21.175,14.245-40.237,19.218-57.182,2.359-8.038,3.306-15.6,5.109-22.685,2.144-8.423,5.035-16.172,6.508-23.247,7.712-37.042,7.088-55.6,7.088-55.6v-8.036Z" transform="translate(-37.674 20.919)" fill="#1877f2"/>
    <path id="Path_4177" data-name="Path 4177" d="M185.154,255.52l.688,9.354c-1.049,7.469-2.554,16.386-4.712,26.752-.7,3.366-1.726,6.89-2.836,10.562-1.3-23.727,4.128-52.564,4.128-52.564Z" transform="translate(-37.674 21.083)" opacity="0.3"/>
    <path id="Path_4178" data-name="Path 4178" d="M180.51,230.462l4.458,169.3,10.961.843c3.052-19.353,5.289-36.911,6.9-52.721,1.052-10.328.722-19.911,1.292-28.761,1.055-16.383,2.491-30.255,2.413-41.7-.19-28.214-1.806-31.3-2.8-41.692-.184-1.924,0-7.739,0-7.739H180.51Z" transform="translate(-37.674 20.919)" fill="#1877f2"/>
    <path id="Path_4180" data-name="Path 4180" d="M197.462,397.677l-13.515-.836v4.319l12.726.836Z" transform="translate(-37.674 20.919)" fill="#232930"/>
    <path id="Path_4181" data-name="Path 4181" d="M195.041,229.776c2.983-.148,5.417-.339,7.113-.495l.214,3.781c-1.744.16-4.207.353-7.236.5Z" transform="translate(-37.674 21.141)" fill="#263238"/>
    <path id="Path_4182" data-name="Path 4182" d="M177.444,233.62v-3.789q2.429.11,4.735.149l.243,3.792Q180,233.731,177.444,233.62Z" transform="translate(-37.674 21.14)" fill="#263238"/>
    <path id="Path_4183" data-name="Path 4183" d="M184.239,230.007c3.1.022,5.971-.035,8.533-.132l.253,3.78c-2.271.087-4.778.146-7.476.146-.412,0-.838,0-1.258-.008Z" transform="translate(-37.674 21.14)" fill="#263238"/>
    <path id="Path_4184" data-name="Path 4184" d="M170.132,229.335c1.91.174,3.795.31,5.638.412v3.791c-2.082-.113-4.213-.266-6.377-.47Z" transform="translate(-37.674 21.141)" fill="#263238"/>
    <path id="Path_4185" data-name="Path 4185" d="M152.444,392.922l-12.986-3.839-.967,4.21,12.216,3.662Z" transform="translate(-37.674 20.919)" fill="#232930"/>
    <path id="Path_4186" data-name="Path 4186" d="M124.343,179.353l5.85-.708a2.151,2.151,0,0,0,1.874-2.629l-3.362-15.945a1.137,1.137,0,0,0-1.224-.88l-7.2.873a2.15,2.15,0,0,0-1.874,2.629l3.079,14.605A2.655,2.655,0,0,0,124.343,179.353Z" transform="translate(-37.674 21.218)" fill="#407bff"/>
    <path id="Path_4187" data-name="Path 4187" d="M124.343,179.353l5.85-.708a2.151,2.151,0,0,0,1.874-2.629l-3.362-15.945a1.137,1.137,0,0,0-1.224-.88l-7.2.873a2.15,2.15,0,0,0-1.874,2.629l3.079,14.605A2.655,2.655,0,0,0,124.343,179.353Z" transform="translate(-37.674 21.218)" opacity="0.2"/>
    <path id="Path_4188" data-name="Path 4188" d="M124.068,179.691l5.85-.709a2.15,2.15,0,0,0,1.874-2.629l-3.362-15.945a1.135,1.135,0,0,0-1.224-.879l-7.2.872a2.151,2.151,0,0,0-1.874,2.629l3.079,14.6A2.655,2.655,0,0,0,124.068,179.691Z" transform="translate(-37.674 21.217)" fill="#407bff"/>
    <path id="Path_4190" data-name="Path 4190" d="M125.528,164.585l2.569-.311a1.016,1.016,0,0,0,.886-1.243l-.547-2.6a1.167,1.167,0,0,0-1.257-.9l-2.648.321a1.017,1.017,0,0,0-.886,1.243l.531,2.518A1.254,1.254,0,0,0,125.528,164.585Z" transform="translate(-37.674 21.222)" fill="#fff" opacity="0.3"/>
    <path id="Path_4191" data-name="Path 4191" d="M125.723,164.343l2.33-.282a1.016,1.016,0,0,0,.885-1.242l-.486-2.3a1.253,1.253,0,0,0-1.352-.972l-2.33.282a1.017,1.017,0,0,0-.886,1.243l.486,2.3A1.255,1.255,0,0,0,125.723,164.343Z" transform="translate(-37.674 21.222)" fill="#263238"/>
    <path id="Path_4192" data-name="Path 4192" d="M125.723,164.343l2.33-.282a1.016,1.016,0,0,0,.885-1.242l-.486-2.3a1.253,1.253,0,0,0-1.352-.972l-2.33.282a1.017,1.017,0,0,0-.886,1.243l.486,2.3A1.255,1.255,0,0,0,125.723,164.343Z" transform="translate(-37.674 21.222)" fill="#fff" opacity="0.1"/>
    <path id="Path_4193" data-name="Path 4193" d="M123.818,170.07a1.335,1.335,0,0,0,1.44,1.034,1.082,1.082,0,0,0,.943-1.323,1.337,1.337,0,0,0-1.44-1.035A1.083,1.083,0,0,0,123.818,170.07Z" transform="translate(-37.674 21.212)" fill="#fff"/>
    <path id="Path_4194" data-name="Path 4194" d="M169.28,206.588c-1.2,1.775-7.284.575-7.284.575l-1.291-7.539,7.469,2.994Z" transform="translate(-37.674 21.174)" fill="#ffb573"/>
    <path id="Path_4195" data-name="Path 4195" d="M162.2,199.231l1.167,7.833-4.493.673a1,1,0,0,1-1.059-.778l-1.716-5.611a.515.515,0,0,1,.372-.61Z" transform="translate(-37.674 21.174)" fill="#ffb573"/>
    <path id="Path_4196" data-name="Path 4196" d="M160.2,202.787l2.563.453,2.417-1.823-.935-.667a3.169,3.169,0,0,1-1.25-1.881,13.3,13.3,0,0,1-.328-2.422l-.007-.272a1.11,1.11,0,0,0-.937-.954l-.635.471a6.447,6.447,0,0,0-.165,2.547l-.1,1.314-1.026.445Z" transform="translate(-37.674 21.179)" fill="#ffb573"/>
    <path id="Path_4197" data-name="Path 4197" d="M209.613,176.754l-15.028,20.677-27.622,5.425v4.53s25.945,1.924,31.765-1.474,15.613-23.962,15.613-23.962Z" transform="translate(-37.674 21.192)" fill="#ffb573"/>
    <path id="Path_4198" data-name="Path 4198" d="M212.465,176.241c3.54,4.181,2.5,14.519-2.6,21.1l-12.422-7.3s7.289-12.31,11.313-14.731C210.475,174.272,211.17,174.711,212.465,176.241Z" transform="translate(-37.674 21.198)" fill="#f66639"/>
    <path id="Path_4199" data-name="Path 4199" d="M197.952,130.9a9.25,9.25,0,0,1,4.413-4.407,6.336,6.336,0,0,1,.364,3.063c1.7.348,3.11.6,4.806.952,1.754.36,3.773.928,4.449,2.586a19.98,19.98,0,0,1-6.284,6.337c-1.787-2.006-3.713-4.354-4.222-6.992l-.165.5C200.173,132.864,198.883,131.56,197.952,130.9Z" transform="translate(-37.674 21.326)" fill="#407bff"/>
    <path id="Path_4200" data-name="Path 4200" d="M242.351,94.849l-2.939,1.2a.152.152,0,0,1-.074.025l-1.909-2.623c-5.891-8.4-12.638-17.723-4.455-21.914,5.674-2.917,10.129,2.229,12.24,5.376,3.454-1.565,11.137-6.539,14.279,2.621C262.114,87.16,251.776,90.8,242.351,94.849Z" transform="translate(-37.674 21.326)" fill="#ea4335"/>
    <path id="Path_4201" data-name="Path 4201" d="M232.72,74.145a.793.793,0,1,1-.092.013Z" transform="translate(-37.674 21.326)" fill="#fff" opacity="0.5"/>
    <path id="Path_4202" data-name="Path 4202" d="M233.457,83.75c-1.739-1.865,1.514-6.062-.982-7.11C230.365,76.95,231.312,81.432,233.457,83.75Z" transform="translate(-37.674 21.326)" fill="#fff" opacity="0.5"/>
    <path id="Path_4203" data-name="Path 4203" d="M228.528,109.56l-1.6.654a.087.087,0,0,1-.04.014l-1.04-1.429c-3.207-4.575-6.881-9.651-2.425-11.933,3.09-1.589,5.515,1.214,6.665,2.928,1.881-.853,6.064-3.561,7.775,1.427C239.29,105.373,233.66,107.353,228.528,109.56Z" transform="translate(-37.674 21.326)" fill="#98ca46"/>
    <path id="Path_4204" data-name="Path 4204" d="M223.283,98.285a.438.438,0,1,1-.049.008Z" transform="translate(-37.674 21.326)" fill="#fff" opacity="0.5"/>
    <path id="Path_4205" data-name="Path 4205" d="M223.685,103.516c-.947-1.016.824-3.3-.535-3.871C222,99.813,222.517,102.254,223.685,103.516Z" transform="translate(-37.674 21.326)" fill="#fff" opacity="0.5"/>
    <path id="Path_4207" data-name="Path 4207" d="M232.72,74.145a.793.793,0,1,1-.092.013Z" transform="translate(-37.674 21.326)" fill="#fff" opacity="0.5"/>
    <path id="Path_4208" data-name="Path 4208" d="M233.457,83.75c-1.739-1.865,1.514-6.062-.982-7.11C230.365,76.95,231.312,81.432,233.457,83.75Z" transform="translate(-37.674 21.326)" fill="#fff" opacity="0.5"/>
    <path id="Path_4210" data-name="Path 4210" d="M223.283,98.285a.438.438,0,1,1-.049.008Z" transform="translate(-37.674 21.326)" fill="#fff" opacity="0.5"/>
    <path id="Path_4211" data-name="Path 4211" d="M223.685,103.516c-.947-1.016.824-3.3-.535-3.871C222,99.813,222.517,102.254,223.685,103.516Z" transform="translate(-37.674 21.326)" fill="#fff" opacity="0.5"/>
    <path id="Path_4217" data-name="Path 4217" d="M333.517,139.667l-3.1,3.024h0l-5.807,5.66a.827.827,0,0,0-.236.731l1.514,8.828h0l.589,3.435a.825.825,0,0,1-1.2.869l-.582-.306-4.054-2.131-2.981-1.567-.06-.032-1.766-.928-1.57-.825a.824.824,0,0,0-.769,0l-2.751,1.446-2.658,1.4-.6.316-1.248.656L303.84,161.5l-1.359.714a.809.809,0,0,1-.354.1.826.826,0,0,1-.844-.964l.126-.737,1.978-11.527a.827.827,0,0,0-.237-.731l-8.911-8.685a.825.825,0,0,1,.458-1.407l12.313-1.79a.825.825,0,0,0,.622-.451l5.507-11.158a.806.806,0,0,1,.159-.221.777.777,0,0,1,.4-.218.819.819,0,0,1,.184-.022h0a.716.716,0,0,1,.159.017.535.535,0,0,1,.079.019.808.808,0,0,1,.5.425l.609,1.234.729,1.479.442.9h0l1.117,2.263.814,1.647h0l1.794,3.638a.825.825,0,0,0,.622.451l7.248,1.054,3.793.551,1.272.185A.825.825,0,0,1,333.517,139.667Z" transform="translate(-37.674 12.93)" fill="#fab942"/>
    <path id="Path_4218" data-name="Path 4218" d="M336.038,140.026l-6.8,6.635-2.105,2.051a.828.828,0,0,0-.237.73l.472,3.5,1.291,9.586a.825.825,0,0,1-1.2.869l-2.769-1.466-4.05-2.146-2.978-1.577,2.981,1.567,4.054,2.131.582.306a.825.825,0,0,0,1.2-.869l-.589-3.435h0l-1.514-8.828a.827.827,0,0,1,.236-.731l5.807-5.661,3.1-3.024a.825.825,0,0,0-.457-1.407l-1.272-.185-3.793-.551-7.248-1.054a.825.825,0,0,1-.622-.451l-1.794-3.638h0l-.814-1.647L316.4,128.47h0l-.442-.9h0l-.729-1.478-.609-1.234a.808.808,0,0,0-.5-.425l2.238.326.326.047.077.069.382.342,1.317,2.67.249.505.505,1.023,3.435,6.96a.829.829,0,0,0,.622.452l4.73.687,3.793.551,3.79.551A.824.824,0,0,1,336.038,140.026Z" transform="translate(-37.674 12.93)" fill="#efa92a"/>
    <path id="Path_4219" data-name="Path 4219" d="M315.833,157.252l-5.815,3.056h0l-2.755,1.448-1.718.9a.274.274,0,0,1-.035.016,1.183,1.183,0,0,1-.82,0l-.046.023-2.518-.382v0a.809.809,0,0,0,.354-.1l1.359-.714,2.394-1.259,1.248-.656.6-.316,2.658-1.4,2.751-1.446a.824.824,0,0,1,.769,0Z" transform="translate(-37.674 12.839)" fill="#efa92a"/>
    <path id="Path_4234" data-name="Path 4234" d="M370.265,133.38l-1.844,1.8h0l-3.45,3.363a.489.489,0,0,0-.141.434l.9,5.245h0l.35,2.041a.49.49,0,0,1-.712.516l-.345-.182-2.409-1.266-1.771-.931-.036-.019-1.049-.551-.933-.491a.492.492,0,0,0-.457,0l-1.634.86-1.579.83-.359.188-.741.39-1.423.748-.807.424a.491.491,0,0,1-.712-.516l.075-.438,1.175-6.849a.489.489,0,0,0-.141-.434l-5.294-5.16a.49.49,0,0,1,.272-.836l7.316-1.064a.487.487,0,0,0,.369-.268l3.272-6.629a.515.515,0,0,1,.094-.132.476.476,0,0,1,.236-.129.507.507,0,0,1,.109-.013h0a.429.429,0,0,1,.094.01.357.357,0,0,1,.047.011.48.48,0,0,1,.3.253l.362.733.433.879.263.532h0l.663,1.344.484.979h0l1.066,2.161a.487.487,0,0,0,.369.268l4.307.626,2.253.328.756.11A.49.49,0,0,1,370.265,133.38Z" transform="translate(-37.674 12.93)" fill="#fab942"/>
    <path id="Path_4235" data-name="Path 4235" d="M371.762,133.593l-4.043,3.942-1.25,1.219a.492.492,0,0,0-.142.434l.281,2.081.767,5.7a.491.491,0,0,1-.712.517l-1.645-.871-2.406-1.275-1.769-.937,1.771.931,2.409,1.266.345.182a.49.49,0,0,0,.712-.516l-.35-2.041h0l-.9-5.245a.489.489,0,0,1,.141-.434l3.45-3.364,1.844-1.8a.49.49,0,0,0-.272-.836l-.756-.11-2.253-.328-4.307-.626a.487.487,0,0,1-.369-.268l-1.066-2.161h0l-.484-.979-.663-1.344h0l-.263-.532h0l-.433-.878-.362-.733a.48.48,0,0,0-.3-.253l1.33.194.193.028.046.041.227.2.782,1.586.149.3.3.609,2.041,4.135a.492.492,0,0,0,.369.268l2.81.408,2.254.328,2.252.327A.49.49,0,0,1,371.762,133.593Z" transform="translate(-37.674 12.93)" fill="#efa92a"/>
    <path id="Path_4236" data-name="Path 4236" d="M359.758,143.828l-3.455,1.815h0l-1.637.86-1.021.537-.021.009a.7.7,0,0,1-.487,0l-.027.014-1.5-.227v0a.485.485,0,0,0,.211-.056l.807-.424,1.423-.748.741-.39.359-.188,1.579-.83,1.634-.86a.492.492,0,0,1,.457,0Z" transform="translate(-37.674 12.93)" fill="#efa92a"/>
    <path id="Path_4251" data-name="Path 4251" d="M361.609,164.543l-1.793,1.748h0l-3.356,3.271a.481.481,0,0,0-.137.423l.875,5.1h0l.341,1.985a.478.478,0,0,1-.693.5l-.336-.177-2.343-1.231-1.723-.906-.034-.019-1.021-.536-.907-.477a.474.474,0,0,0-.445,0l-1.59.836-1.536.808-.348.183-.721.379-1.384.727-.786.413a.469.469,0,0,1-.2.055.478.478,0,0,1-.488-.558l.073-.426,1.143-6.661a.481.481,0,0,0-.137-.423l-5.15-5.019a.477.477,0,0,1,.265-.813l7.116-1.035a.475.475,0,0,0,.359-.261l3.183-6.448a.476.476,0,0,1,.321-.254.479.479,0,0,1,.106-.012h0a.415.415,0,0,1,.092.009.366.366,0,0,1,.045.011.466.466,0,0,1,.29.246l.352.713.421.855.256.518h0l.645,1.307.47.952h0l1.038,2.1a.475.475,0,0,0,.359.261l4.189.609,2.192.319.735.107A.476.476,0,0,1,361.609,164.543Z" transform="translate(-37.674 12.836)" fill="#fab942"/>
    <path id="Path_4252" data-name="Path 4252" d="M363.066,164.75l-3.933,3.835-1.216,1.185a.479.479,0,0,0-.137.422l.272,2.025.746,5.54a.476.476,0,0,1-.692.5l-1.6-.847-2.34-1.24-1.722-.911,1.723.906,2.343,1.231.336.177a.478.478,0,0,0,.693-.5l-.341-1.985h0l-.875-5.1a.481.481,0,0,1,.137-.423l3.356-3.271,1.793-1.748a.476.476,0,0,0-.264-.813l-.735-.107-2.192-.319-4.189-.609a.475.475,0,0,1-.359-.261l-1.038-2.1h0l-.47-.952-.645-1.307h0l-.256-.518h0l-.421-.854-.352-.713a.466.466,0,0,0-.29-.246l1.293.189.189.027.045.04.22.2.761,1.543.145.292.292.592,1.985,4.022a.475.475,0,0,0,.359.261l2.733.4,2.193.319,2.19.318A.476.476,0,0,1,363.066,164.75Z" transform="translate(-37.674 12.836)" fill="#efa92a"/>
    <path id="Path_4253" data-name="Path 4253" d="M351.389,174.706l-3.361,1.766h0l-1.592.836-.993.522-.02.01a.688.688,0,0,1-.474,0l-.026.013-1.456-.221h0a.469.469,0,0,0,.2-.055l.786-.413,1.384-.727.721-.379.348-.183,1.536-.808,1.59-.836a.474.474,0,0,1,.445,0Z" transform="translate(-37.674 12.819)" fill="#efa92a"/>
    <g id="Group_8433" data-name="Group 8433" transform="translate(230.176 288.814)">
      <path id="Path_4100" data-name="Path 4100" d="M276.711,365.57l-1.464,5.937s-14.408-4.33-19.251,7.768,7.761,37.929,46.093,28.987c0,0,10.334,2.8,19.167.578,13.1-3.3,29.773-10.981,31.571-23.149,3.012-20.375-37.509-13.142-37.509-13.142l-1.5-3.817Z" transform="translate(-254.85 -267.894)" fill="#98ca46"/>
      <path id="Path_4101" data-name="Path 4101" d="M281.823,374.121s9.074,4.583,12.364,12.274l3.915,1.45S295.8,377.34,281.823,374.121Z" transform="translate(-254.85 -267.894)" opacity="0.1"/>
      <path id="Path_4102" data-name="Path 4102" d="M311.225,393.564s.282-13.024,13.235-23.016l10.072-.014L315.086,396Z" transform="translate(-254.85 -267.894)" fill="#89b53f"/>
      <path id="Path_4103" data-name="Path 4103" d="M255.658,380.27s-3.615,10.486,10.3,22.179,21.416-3.873,21.416-3.873l1.084-5.932-9.521-8.506-12.107-8.171-6.6.781Z" transform="translate(-254.85 -267.894)" fill="#89b53f"/>
      <path id="Path_4104" data-name="Path 4104" d="M255.579,381.725a27.64,27.64,0,0,0,15.581,21.254c11.944,5.7,15.013-10.411,15.013-10.411l-22.037-14.353-8.14,1.06Z" transform="translate(-254.85 -267.894)" fill="#e5a367"/>
      <path id="Path_4106" data-name="Path 4106" d="M350.93,419.965a21.485,21.485,0,0,0-11.292-9.76,3.256,3.256,0,0,1-1.24-1.124,2.731,2.731,0,0,1-.31-.579l-2.461-8.035a.713.713,0,0,1-.049-.447.776.776,0,0,1,.312-.527l6.883-3.992a1.336,1.336,0,0,1,1.875.276,2.68,2.68,0,0,1,.147.247c1.382,3.341,2.493,6.369,4.307,10.488,2.132,4.857,2.174,3.372,4.751,9.055C355.411,418.995,351.769,421.342,350.93,419.965Z" transform="translate(-254.85 -267.894)" fill="#263238"/>
      <path id="Path_4107" data-name="Path 4107" d="M326.381,371.937s34.642-7.527,40.176,3.472-14.115,18.349-21.1,20.816c-12.184,4.3-54.445,17.573-54.445,17.573l2.751-8.616,20.166-11.471S314.842,382.148,326.381,371.937Z" transform="translate(-254.85 -267.894)" fill="#ffb573"/>
      <path id="Path_4108" data-name="Path 4108" d="M293.834,412.725l3.009-9.1a.77.77,0,0,0-.335-.9l-6.857-4.093a1.282,1.282,0,0,0-1.761.432,1.23,1.23,0,0,0-.116.246c-1.028,3.3-1.813,6.273-3.169,10.354-1.6,4.817-1.767,3.4-3.721,9.041-1.174,3.4,2.5,5.306,3.168,3.922,3.025-6.347,5.252-6.373,8.467-8.144A3.088,3.088,0,0,0,293.834,412.725Z" transform="translate(-254.85 -267.894)" fill="#263238"/>
      <path id="Path_4109" data-name="Path 4109" d="M341.9,375.138c-.328-1.281-19.527,10.947-25.518,10.223a33.366,33.366,0,0,0-1.906,5.445h0c-.089.354-.16.671-.223.968-.011.048-.022.1-.031.145-.024.112-.044.215-.063.317-.012.061-.024.12-.034.177-.017.089-.031.172-.045.253-.01.058-.02.113-.028.167s-.022.134-.032.2l-.022.149c-.007.051-.014.1-.02.142l-.016.127c0,.031-.008.062-.01.088s-.008.066-.01.092l-.005.041v.015l0,.028-18.908,10.756,14.808,3.379c8.839-2.811,19.094-6.1,26.861-8.66l-19.616-7.4C324.433,387.264,342.176,376.23,341.9,375.138Z" transform="translate(-254.85 -267.894)" opacity="0.1" style="isolation: isolate"/>
      <path id="Path_4110" data-name="Path 4110" d="M338.4,409.081c-10.719-1.357-31.072-4.007-38.081-5.526-12.653-2.736-54.368-13.451-43.756-27.669,11.076-14.851,33.24,7.706,33.24,7.706l45.777,16.428a.713.713,0,0,0,.049.447l2.461,8.035A2.731,2.731,0,0,0,338.4,409.081Z" transform="translate(-254.85 -267.894)" fill="#ffb573"/>
      <path id="Path_4111" data-name="Path 4111" d="M272.142,375.258c-3.3,1.431,17.661,8.331,17.661,8.331a62.917,62.917,0,0,0-8.936-7.272C277.639,375.034,274.354,374.3,272.142,375.258Z" transform="translate(-254.85 -267.894)" opacity="0.1" style="isolation: isolate"/>
      <path id="Path_4112" data-name="Path 4112" d="M362.325,322.776l7.977-3.742-3.143-8.671-3.31,4.544a20.277,20.277,0,0,1-2.732,3.048h0Z" transform="translate(-254.85 -267.894)" fill="#ffb573"/>
      <path id="Path_4113" data-name="Path 4113" d="M365.359,310.842l3.448,8.906,5.11-1.974a1.2,1.2,0,0,0,.646-1.447l-1.548-6.9a.621.621,0,0,0-.753-.418Z" transform="translate(-254.85 -267.894)" fill="#ffb573"/>
      <path id="Path_4114" data-name="Path 4114" d="M368.511,314.387l-2.144,1.777-3.211-.416.516-1.115a3.384,3.384,0,0,0,.168-2.41,14.2,14.2,0,0,0-.977-2.425l-.137-.257a1.187,1.187,0,0,1,.366-1.383s1.173-.27,2.34,2.383l.79,1.169,1.189-.13Z" transform="translate(-254.85 -267.894)" fill="#ffb573"/>
      <path id="Path_4115" data-name="Path 4115" d="M316.628,314.106l18.029,12.855,27.731-9.956,2.4,4.212s-22.285,15.9-29.494,15.821S309.5,321.554,309.5,321.554Z" transform="translate(-254.85 -267.894)" fill="#ffb573"/>
      <path id="Path_4116" data-name="Path 4116" d="M312.07,313.136c2.9-1.912,6.6-4.985,19.259,9.64l-8.58,9.888C314.452,329.577,306.49,318.985,312.07,313.136Z" transform="translate(-254.85 -267.894)" fill="#263238"/>
      <path id="Path_4117" data-name="Path 4117" d="M307.515,307.988l-8.712-2.07-11.086-.067a7.675,7.675,0,0,0-7.447,5.6,195.2,195.2,0,0,0-4.5,24.005c-1.247,9.091.29,19.5.62,31.811l39.523,1.509c-2.091-17.991,1.468-33.726,3.825-43.205.517-5.824.051-12.724-3.114-14.069Z" transform="translate(-254.85 -267.894)" fill="#263238"/>
      <path id="Path_4118" data-name="Path 4118" d="M275.772,335.425c.857-6.376,2-13.564,3.361-19.524,7.313-1.541,11.533,14.461,9.672,22.558s-13.712,3.715-13.712,3.715C275.269,339.751,275.5,337.472,275.772,335.425Z" transform="translate(-254.85 -267.894)" opacity="0.3" style="isolation: isolate"/>
      <path id="Path_4119" data-name="Path 4119" d="M301.638,291.755l3.555,4.977,4.83,6.776a7,7,0,0,0-1.32,2.114c-.738,1.71-1.4,2.989,2.217,5.25a2.348,2.348,0,0,1,1.15,2.264c-.166,1.1-1.2,2.2-5.029,1.682a17.478,17.478,0,0,1-9.748-4.9c-1.317-1.215-1.066-2.179.1-3.543C300.726,302.52,301.517,296.55,301.638,291.755Z" transform="translate(-254.85 -267.894)" fill="#ffb573"/>
      <path id="Path_4120" data-name="Path 4120" d="M308.865,301.835l-2.992-4.847c-.054.131-.112.271-.176.419a12.731,12.731,0,0,0-.521,1.911c-.419,2.223,1.419,5.3,3.359,6.723l.2-.437a8.769,8.769,0,0,1,1.21-2.028.432.432,0,0,1,.11-.085Z" transform="translate(-254.85 -267.894)" opacity="0.2" style="isolation: isolate"/>
      <path id="Path_4121" data-name="Path 4121" d="M315.111,292.075c4.1-5.979,3.853-9.691,7.444-12.7,1.792-.538,4.363,2.966,1.713,8.04S315.111,292.075,315.111,292.075Z" transform="translate(-254.85 -267.894)" fill="#263238"/>
      <path id="Path_4122" data-name="Path 4122" d="M302.807,283.314c-1.317,7.372-2.4,11.625.387,16.141,4.22,6.833,14.021,5.482,17.49-1.4,3.126-6.185,4.691-17.2-1.767-21.667a10.388,10.388,0,0,0-16.11,6.922Z" transform="translate(-254.85 -267.894)" fill="#ffb573"/>
      <path id="Path_4123" data-name="Path 4123" d="M301.1,289.789l3.716,2.9,1.333-6.433,3.531-1.463,4.773-5.509s-8.381-3.647-10.932-4.321c-.893-.236-4.391,1.834-4.994,2.814a8.6,8.6,0,0,0,.279,9.043A18.834,18.834,0,0,0,301.1,289.789Z" transform="translate(-254.85 -267.894)" fill="#263238"/>
      <path id="Path_4124" data-name="Path 4124" d="M298.5,288.19a6.847,6.847,0,0,0,1.719,4.544c1.454,1.6,3.538.195,3.962-1.89.369-1.865-.32-4.7-2.178-5.518S298.509,286.106,298.5,288.19Z" transform="translate(-254.85 -267.894)" fill="#ffb573"/>
      <path id="Path_4125" data-name="Path 4125" d="M313.532,288.817c-.17.6,0,1.187.392,1.309s.8-.259,1.008-.849a1.007,1.007,0,0,0-.393-1.317C314.146,287.831,313.7,288.212,313.532,288.817Z" transform="translate(-254.85 -267.894)" fill="#263238"/>
      <path id="Path_4126" data-name="Path 4126" d="M320.243,290.968c-.177.605,0,1.2.393,1.317s.838-.26,1.008-.848-.008-1.188-.393-1.309S320.413,290.372,320.243,290.968Z" transform="translate(-254.85 -267.894)" fill="#263238"/>
      <path id="Path_4127" data-name="Path 4127" d="M317.963,290.721a20.128,20.128,0,0,0,.825,5.21,3,3,0,0,1-2.516-.488Z" transform="translate(-254.85 -267.894)" fill="#ff5652"/>
      <path id="Path_4128" data-name="Path 4128" d="M314.744,298.793a5.335,5.335,0,0,1-3.266-2.655.185.185,0,0,1,.087-.246.2.2,0,0,1,.246.1,5.114,5.114,0,0,0,3.7,2.613.186.186,0,0,1-.033.37l-.025,0A5.607,5.607,0,0,1,314.744,298.793Z" transform="translate(-254.85 -267.894)" fill="#263238"/>
      <path id="Path_4129" data-name="Path 4129" d="M312.823,286.276a.326.326,0,0,1-.142-.115.372.372,0,0,1,.092-.513,3.5,3.5,0,0,1,3.269-.471.364.364,0,0,1,.2.472l-.006.013a.372.372,0,0,1-.485.189,2.8,2.8,0,0,0-2.561.394A.343.343,0,0,1,312.823,286.276Z" transform="translate(-254.85 -267.894)" fill="#263238"/>
      <path id="Path_4130" data-name="Path 4130" d="M321.395,287.092a.33.33,0,0,1,.468-.4,3.484,3.484,0,0,1,2.247,2.421.364.364,0,1,1-.712.15,2.787,2.787,0,0,0-1.789-1.882A.372.372,0,0,1,321.395,287.092Z" transform="translate(-254.85 -267.894)" fill="#263238"/>
      <path id="Path_4131" data-name="Path 4131" d="M318.728,372.2l-24.174-2.347s-.088-.466,1.994-.572c.106-.006.283-.028.543-.03.412-.045,2.055-.122,4.253-.228.13-.007.365-.031.709-.038,6.322-.292,16.31-.71,16.31-.71l.306,3.265Z" transform="translate(-254.85 -267.894)" fill="#ea4335"/>
      <path id="Path_4132" data-name="Path 4132" d="M318.669,371.541,300.5,369.709s-.728-.53.84-.685c.13-.007.365-.031.709-.038,6.322-.292,16.31-.71,16.31-.71Z" transform="translate(-254.85 -267.894)" fill="#fe584b"/>
      <path id="Path_4133" data-name="Path 4133" d="M307.282,362.026l3.64.935-4.811,7.466s-7.675-2.4-6.259-5.757l1.859-1.158C303.3,362.5,305.327,361.443,307.282,362.026Z" transform="translate(-254.85 -267.894)" fill="#ffb573"/>
      <path id="Path_4134" data-name="Path 4134" d="M314.311,367.832l-3.459,3.743-4.74-1.157,4.811-7.458Z" transform="translate(-254.85 -267.894)" fill="#ffb573"/>
      <path id="Path_4135" data-name="Path 4135" d="M286.271,331.658c-2.267,6.874-4.706,7.781-1.944,11.385s18.464,15.9,21.4,19.552l-4.93,3.747q-8.7-4.816-17.5-9.437c-4.281-2.247-8.839-4.709-11.076-9-3.206-6.145-1.4-12.024,2.178-19.968C277.9,327.337,286.271,331.658,286.271,331.658Z" transform="translate(-254.85 -267.894)" fill="#ffb573"/>
      <path id="Path_4136" data-name="Path 4136" d="M285.252,306.031c7.743-1.5,11.845,5.029,8.58,15.163a94.655,94.655,0,0,1-6.481,15.878l-17.1-6.682C272.909,320.386,277.333,307.572,285.252,306.031Z" transform="translate(-254.85 -267.894)" fill="#263238"/>
      <path id="Path_4137" data-name="Path 4137" d="M316.056,373.418l43.653-1.769a.824.824,0,0,0,.787-.854h0a.823.823,0,0,0-.853-.787l-43.653,1.77a.823.823,0,0,0-.787.853h0A.822.822,0,0,0,316.056,373.418Z" transform="translate(-254.85 -267.894)" fill="#fe584b"/>
      <path id="Path_4138" data-name="Path 4138" d="M294.816,371.265l20.908,2.136a.822.822,0,0,0,.9-.734h0a.823.823,0,0,0-.733-.9l-20.909-2.137a.825.825,0,0,0-.9.734h0A.825.825,0,0,0,294.816,371.265Z" transform="translate(-254.85 -267.894)" fill="#fe584b"/>
      <path id="Path_4140" data-name="Path 4140" d="M317.18,371.73l40.705-1.65a2.92,2.92,0,0,0,2.734-2.727l.967-20.684a2.362,2.362,0,0,0-2.489-2.515l-40.7,1.65a2.919,2.919,0,0,0-2.735,2.727l-.967,20.684A2.363,2.363,0,0,0,317.18,371.73Z" transform="translate(-254.85 -267.894)" fill="#fe584b"/>
      <path id="Path_4142" data-name="Path 4142" d="M318.373,371.593l40.705-1.651a2.919,2.919,0,0,0,2.735-2.726l.967-20.685a2.364,2.364,0,0,0-2.489-2.515l-40.7,1.65a2.92,2.92,0,0,0-2.734,2.727l-.968,20.684A2.364,2.364,0,0,0,318.373,371.593Z" transform="translate(-254.85 -267.894)" fill="#ea4335"/>
      <path id="Path_4144" data-name="Path 4144" d="M344.894,358.552a4.58,4.58,0,0,1-4.247,4.349,3.711,3.711,0,0,1-3.971-3.907,4.582,4.582,0,0,1,4.248-4.349A3.71,3.71,0,0,1,344.894,358.552Z" transform="translate(-254.85 -267.894)" fill="#fff"/>
      <path id="Path_4145" data-name="Path 4145" d="M302.169,269.794a7.059,7.059,0,0,1,5.9-1.849,20.891,20.891,0,0,1,6.076,1.953l11.558,5.074A4.675,4.675,0,0,1,328.328,277c.658,1.474-.459,3.257-1.946,3.888a8.657,8.657,0,0,1-4.775.163A105.372,105.372,0,0,1,305.683,277C302.454,275.938,298.547,273.658,302.169,269.794Z" transform="translate(-254.85 -267.894)" fill="#263238"/>
      <path id="Path_4146" data-name="Path 4146" d="M317.482,279.631a2.359,2.359,0,0,0-1.052,3.066,2.222,2.222,0,0,1,1.371-1.749c.7-.377,1.39-1.29.859-1.886A6.381,6.381,0,0,0,317.482,279.631Z" transform="translate(-254.85 -267.894)" fill="#263238"/>
      <path id="Path_4147" data-name="Path 4147" d="M320.61,279.771a3.713,3.713,0,0,1-.828,4.111,3.209,3.209,0,0,0,2.735-3.9l-1.673-.417Z" transform="translate(-254.85 -267.894)" fill="#263238"/>
    </g>
  </g>
</svg>
